<svg id="Camada_1" data-name="Camada 1" xmlns="http://www.w3.org/2000/svg" xmlns:xlink="http://www.w3.org/1999/xlink" viewBox="0 0 4946.73 1111.15"><defs><style>.cls-1{fill:url(#Gradiente_sem_nome_2);}.cls-2{fill:url(#Gradiente_sem_nome_2-2);}.cls-3{fill:url(#Gradiente_sem_nome_2-3);}.cls-4{fill:url(#Gradiente_sem_nome_2-4);}.cls-5{fill:url(#Gradiente_sem_nome_2-5);}.cls-6{fill:url(#Gradiente_sem_nome_2-6);}.cls-7{fill:url(#Gradiente_sem_nome_2-7);}.cls-8{fill:url(#Gradiente_sem_nome_2-8);}.cls-9{fill:url(#Gradiente_sem_nome_2-9);}.cls-10{fill:url(#Gradiente_sem_nome_2-10);}</style><linearGradient id="Gradiente_sem_nome_2" x1="2233.54" y1="688.95" x2="2492.95" y2="-112.93" gradientUnits="userSpaceOnUse"><stop offset="0" stop-color="#c898ff"/><stop offset="1" stop-color="#72a1ff"/></linearGradient><linearGradient id="Gradiente_sem_nome_2-2" x1="2769.63" y1="631.16" x2="3145.58" y2="-530.98" xlink:href="#Gradiente_sem_nome_2"/><linearGradient id="Gradiente_sem_nome_2-3" x1="1757.19" y1="693.95" x2="2033.94" y2="-161.52" xlink:href="#Gradiente_sem_nome_2"/><linearGradient id="Gradiente_sem_nome_2-4" x1="670.46" y1="689.73" x2="933.36" y2="-122.92" xlink:href="#Gradiente_sem_nome_2"/><linearGradient id="Gradiente_sem_nome_2-5" x1="1253.48" y1="689.73" x2="1516.37" y2="-122.92" xlink:href="#Gradiente_sem_nome_2"/><linearGradient id="Gradiente_sem_nome_2-6" x1="3966.43" y1="689.73" x2="4229.33" y2="-122.92" xlink:href="#Gradiente_sem_nome_2"/><linearGradient id="Gradiente_sem_nome_2-7" x1="2398.11" y1="771.39" x2="3855.3" y2="-3733.05" xlink:href="#Gradiente_sem_nome_2"/><linearGradient id="Gradiente_sem_nome_2-8" x1="3383.42" y1="689.73" x2="3646.32" y2="-122.92" xlink:href="#Gradiente_sem_nome_2"/><linearGradient id="Gradiente_sem_nome_2-9" x1="4538.45" y1="639.56" x2="4906.83" y2="-499.17" xlink:href="#Gradiente_sem_nome_2"/><linearGradient id="Gradiente_sem_nome_2-10" x1="238.81" y1="591.15" x2="607.18" y2="-547.58" xlink:href="#Gradiente_sem_nome_2"/></defs><title>logo_1</title><path class="cls-1" d="M2249.49,401.11q-100.59,0-169.5,69.39t-68.92,188.13q0,114.55,63.79,178.58t179.28,64q105.71,0,171.83-35.39V759.68q-59.61,37.26-138.3,37.25-123.4,0-130.85-103.84h311.06V631.15q0-106.17-57-168.1T2249.49,401.11Zm-93.6,201.64q5.58-43.77,31.43-73.11t61.24-29.34q82.88,0,82.88,102.45Z"/><path class="cls-2" d="M2914.92,531v-1.86q56.8-15.82,93.37-56.34t36.55-94.53q0-74.51-60.07-115.49t-171.83-41H2569.86V889.6h256.59q113.61,0,179.28-53.79t65.65-145.52q0-62.87-42.6-106.64T2914.92,531ZM2720.27,332.66h56.35q109.89,0,109.9,73.58,0,39.58-26.78,62.16T2786.4,491h-66.13Zm163.22,421.89q-29.58,24.23-81.72,24.22h-81.5v-176h82.43q52.14,0,81.25,22.82t29.11,62.86Q2913.06,730.34,2883.49,754.55Z"/><path class="cls-3" d="M1919.56,653.5a170.11,170.11,0,0,0-40.74-28.4,426.87,426.87,0,0,0-53.09-22.35q-16.31-5.6-32.83-11a214.82,214.82,0,0,1-30-12.1Q1749.36,573,1741,563.63a32.25,32.25,0,0,1-8.38-22.35,28.9,28.9,0,0,1,5.59-17.46,41.38,41.38,0,0,1,15.37-12.58,89.61,89.61,0,0,1,22.58-7.45,139.29,139.29,0,0,1,27.24-2.56,252.49,252.49,0,0,1,62.63,8.15,232.8,232.8,0,0,1,59.84,24.45V420.21A479.88,479.88,0,0,0,1861.59,406a432.71,432.71,0,0,0-64.26-4.89,347.32,347.32,0,0,0-78,8.62q-37.49,8.63-66.59,27A142.69,142.69,0,0,0,1606.17,484q-17.46,28.88-17.46,68.92,0,29.34,7.68,50.76a112.75,112.75,0,0,0,22.36,37.72q14.65,16.3,36.32,28.64a352.77,352.77,0,0,0,50.06,23.05q17.68,7,36.78,12.57a296.92,296.92,0,0,1,35.16,12.57q16.07,7,26.31,16.3a30.16,30.16,0,0,1,10.25,23.28q0,21.9-22.59,32.6t-61.7,10.71q-32.13,0-68.22-10.71t-72.41-32.6V877q67.05,24.21,145.75,24.22a390,390,0,0,0,82.66-8.62q39.81-8.61,70.31-27.47a147.32,147.32,0,0,0,48.9-48.9q18.39-30,18.39-72.41,0-30.26-9.08-52.15A111.69,111.69,0,0,0,1919.56,653.5Z"/><path class="cls-4" d="M687.65,401.11q-120.61,0-191.39,66.83T425.48,653q0,114.56,68.22,181.37t187.43,66.83q121.07,0,190.69-68.92t69.62-187.66q0-109.89-67.52-176.72T687.65,401.11Zm-1.86,387.44Q575,788.55,575,651.18q0-65.67,28.87-101.52t81-35.85q106.62,0,106.63,133.64Q791.49,788.56,685.79,788.55Z"/><path class="cls-5" d="M1270.66,401.11q-120.6,0-191.39,66.83T1008.49,653q0,114.56,68.22,181.37t187.43,66.83q121.08,0,190.69-68.92t69.62-187.66q0-109.89-67.52-176.72T1270.66,401.11Zm-1.86,387.44Q1158,788.55,1158,651.18q0-65.67,28.87-101.52t81-35.85q106.62,0,106.64,133.64Q1374.51,788.56,1268.8,788.55Z"/><path class="cls-6" d="M3983.62,401.11q-120.61,0-191.39,66.83T3721.45,653q0,114.56,68.22,181.37t187.43,66.83q121.07,0,190.69-68.92t69.62-187.66q0-109.89-67.52-176.72T3983.62,401.11Zm-1.86,387.44q-110.84,0-110.83-137.37,0-65.67,28.87-101.52t81-35.85q106.62,0,106.63,133.64Q4087.46,788.56,3981.76,788.55Z"/><polygon class="cls-7" points="-139.18 -91.3 5074.95 -91.3 5074.95 -91.3 -139.18 -91.3 -139.18 1202.73 5074.95 1202.73 5074.95 1202.73 -139.18 1202.73 -139.18 -91.3"/><path class="cls-8" d="M3400.61,401.11q-120.62,0-191.39,66.83T3138.44,653q0,114.56,68.22,181.37t187.43,66.83q121.07,0,190.69-68.92t69.62-187.66q0-109.89-67.53-176.72T3400.61,401.11Zm-1.86,387.44q-110.84,0-110.83-137.37,0-65.67,28.87-101.52t81-35.85q106.64,0,106.64,133.64Q3504.45,788.56,3398.75,788.55Z"/><polygon class="cls-9" points="4627.63 636.74 4798.53 412.76 4623.91 412.76 4481.88 633.01 4480.02 633.01 4480.02 183.65 4332.87 183.65 4332.87 889.6 4480.02 889.6 4480.02 653.04 4481.88 653.04 4634.15 889.6 4810.64 889.6 4627.63 636.74"/><rect class="cls-10" x="182.87" y="183.65" width="147.15" height="705.95"/></svg>